<?xml version="1.0" encoding="utf-8"?>
<!-- Svg Vector Icons : http://www.onlinewebfonts.com/icon -->
<!DOCTYPE svg PUBLIC "-//W3C//DTD SVG 1.1//EN" "http://www.w3.org/Graphics/SVG/1.1/DTD/svg11.dtd">
<svg version="1.1" xmlns="http://www.w3.org/2000/svg" xmlns:xlink="http://www.w3.org/1999/xlink" x="0px" y="0px" viewBox="0 0 1000 1000" enable-background="new 0 0 1000 1000" xml:space="preserve">
<metadata> Svg Vector Icons : http://www.onlinewebfonts.com/icon </metadata>
<g><path d="M349.2,308.4c0-55.7,14.7-185.3,150.8-185.3c131.1,0,150.8,116.1,150.8,185.3v40.9h113v-40.9C763.7,127.2,660.2,10,500,10c-160.2,0-264,117.2-264,298.4v40.9h113.1V308.4L349.2,308.4z M763.7,386.9H236c-62.4,0-113,50.7-113,113.1v377c0,62.4,50.6,113,113,113h527.7c62.4,0,113.2-50.6,113.2-113V500C877,437.6,826.2,386.9,763.7,386.9L763.7,386.9z M537.7,715.7v85.9c0,20.7-16.9,37.7-37.7,37.7c-20.8,0-37.7-16.9-37.7-37.7v-85.9c-22.4-13.1-37.7-37.2-37.7-65c0-41.6,33.8-75.4,75.4-75.4c41.6,0,75.4,33.8,75.4,75.4C575.3,678.6,560.1,702.6,537.7,715.7L537.7,715.7z"/></g>
</svg>